<svg width="512" height="512" viewBox="0 0 512 512" fill="none" xmlns="http://www.w3.org/2000/svg">
<path d="M389.214 106.14C355.434 57.8837 288.492 43.3449 239.836 74.2785L154.61 128.412C131.367 142.951 115.251 166.77 110.603 193.682C106.574 216.264 109.983 239.464 120.83 259.571C113.392 270.707 108.433 283.081 106.264 296.073C101.305 323.604 107.813 352.063 123.929 374.644C158.019 423.21 224.96 437.439 273.307 406.815L358.533 352.681C381.776 338.142 397.892 314.324 402.54 287.411C406.569 264.83 403.16 241.63 392.313 221.523C399.751 210.387 404.71 198.013 406.879 185.021C412.148 157.181 405.639 129.031 389.214 106.14" stroke="#FF3E00" stroke-width="2.25"/>
<path d="M231.469 379.284C203.887 386.399 175.065 375.572 158.949 352.372C149.032 338.761 145.313 321.748 148.102 305.043C148.722 302.259 149.342 299.785 149.962 297.001L151.511 292.051L155.85 295.145C166.077 302.569 177.234 308.137 189.321 311.849L192.42 312.777L192.11 315.87C191.8 320.201 193.04 324.841 195.519 328.553C200.477 335.668 209.155 339.07 217.523 336.905C219.382 336.286 221.242 335.668 222.791 334.74L307.707 280.606C312.046 277.822 314.835 273.8 315.765 268.851C316.695 263.902 315.455 258.643 312.666 254.622C307.707 247.507 299.03 244.413 290.662 246.579C288.803 247.198 286.943 247.816 285.394 248.744L252.853 269.47C247.584 272.872 241.696 275.347 235.498 276.894C207.915 284.009 179.094 273.182 162.978 249.982C153.371 236.371 149.342 219.357 152.441 202.653C155.23 186.568 165.147 172.029 179.094 163.367L264.01 109.234C269.278 105.831 275.166 103.356 281.365 101.5C308.947 94.3854 337.769 105.212 353.884 128.412C363.802 142.023 367.52 159.037 364.731 175.741C364.111 178.525 363.492 181 362.562 183.784L361.322 188.733L356.983 185.64C346.756 178.216 335.599 172.647 323.513 168.935L320.414 168.007L320.724 164.914C321.034 160.583 319.794 155.943 317.315 152.231C312.356 145.117 303.678 142.023 295.311 144.189C293.451 144.807 291.592 145.426 290.042 146.354L205.126 200.488C200.787 202.962 197.998 207.293 197.068 212.243C196.139 217.192 197.378 222.451 200.168 226.472C205.126 233.587 213.804 236.68 222.171 234.515C224.031 233.896 225.89 233.277 227.44 232.349L259.981 211.624C265.249 208.221 271.138 205.746 277.336 203.89C304.918 196.776 333.74 207.602 349.855 230.803C359.773 244.414 363.492 261.427 360.702 278.131C357.913 294.217 347.996 308.755 334.05 317.417L249.134 371.551C243.555 374.953 237.667 377.737 231.469 379.284" stroke="#FF3E00" stroke-width="2.25"/>
<path d="M473.011 339.623C471.933 335.565 469.808 331.861 466.849 328.883C463.89 325.904 460.2 323.755 456.149 322.652C441.276 318.641 381.636 318.641 381.636 318.641C381.636 318.641 321.997 318.641 307.123 322.652C303.072 323.755 299.383 325.904 296.423 328.883C293.464 331.861 291.339 335.565 290.262 339.623C287.513 354.868 286.179 370.335 286.277 385.826C286.179 401.317 287.513 416.783 290.262 432.029C291.339 436.087 293.464 439.79 296.423 442.769C299.383 445.747 303.073 447.896 307.123 449C321.997 453.011 381.636 453.011 381.636 453.011C381.636 453.011 441.276 453.011 456.149 449C460.2 447.896 463.89 445.747 466.849 442.769C469.808 439.79 471.933 436.087 473.011 432.029C475.76 416.783 477.094 401.317 476.996 385.826C477.094 370.335 475.76 354.868 473.011 339.623V339.623ZM362.131 414.183V357.468L411.978 385.827L362.131 414.183Z" fill="#FF3E00"/>
<path fill-rule="evenodd" clip-rule="evenodd" d="M94.5646 150.389V148.891C106.835 148.891 117.56 144.302 126.723 135.139C135.886 125.976 140.475 115.251 140.475 102.981H141.973C141.973 115.251 146.562 125.976 155.741 135.139C164.952 144.302 175.677 148.891 187.899 148.891V150.389C175.629 150.389 164.904 154.978 155.741 164.141C146.578 173.304 141.989 184.029 141.989 196.3H140.491C140.491 184.029 135.902 173.304 126.739 164.141C117.56 154.978 106.835 150.389 94.5646 150.389ZM38.3801 123.11V122.417C44.0001 122.417 48.9277 120.308 53.1307 116.105C57.3337 111.902 59.4432 106.974 59.4432 101.354H60.1356C60.1356 106.974 62.2452 111.902 66.4481 116.105C70.6672 120.308 75.5787 122.417 81.1827 122.417V123.11C75.5626 123.11 70.635 125.219 66.432 129.422C62.2291 133.625 60.1195 138.537 60.1195 144.173H59.4271C59.4271 138.553 57.3176 133.625 53.1146 129.422C48.9277 125.203 44.0001 123.11 38.3801 123.11ZM33.9999 211.453V210.76C39.62 210.76 44.5476 208.651 48.7506 204.448C52.9536 200.245 55.0631 195.333 55.0631 189.697H55.7555C55.7555 195.317 57.8651 200.245 62.068 204.448C66.2871 208.651 71.1986 210.76 76.8026 210.76V211.453C71.1825 211.453 66.2549 213.562 62.0519 217.765C57.849 221.968 55.7394 226.88 55.7394 232.516H55.047C55.047 226.896 52.9375 221.968 48.7345 217.765C44.5476 213.546 39.6361 211.453 33.9999 211.453ZM83.9203 260.697V259.441C94.2103 259.441 103.212 255.592 110.909 247.895C118.607 240.197 122.456 231.212 122.456 220.905H123.712C123.712 231.195 127.56 240.197 135.274 247.895C142.987 255.592 151.989 259.441 162.247 259.441V260.697C151.957 260.697 142.955 264.545 135.258 272.243C127.56 279.94 123.712 288.926 123.712 299.232H122.456C122.456 288.942 118.607 279.94 110.909 272.243C103.212 264.545 94.2103 260.697 83.9203 260.697Z" fill="#FF3E00"/>
</svg>
